<svg width="195" height="32" viewBox="0 0 195 32" fill="none" xmlns="http://www.w3.org/2000/svg">
<path d="M7.53906 5.35156C7.86458 6.875 8.02734 8.64583 8.02734 10.6641C8.02734 10.8073 8.02734 10.944 8.02734 11.0742L7.96875 14.707L15.625 14.2773C15.8333 14.5247 15.9375 15.0326 15.9375 15.8008C15.9375 16.569 15.8724 17.3242 15.7422 18.0664C15.026 18.1706 14.0951 18.2227 12.9492 18.2227C11.8034 18.2227 10.1432 18.0924 7.96875 17.832L7.92969 23.3984C7.92969 25.9635 8.10547 28.2812 8.45703 30.3516C7.35026 30.6901 6.0026 30.8594 4.41406 30.8594C2.83854 30.8594 1.84245 30.6901 1.42578 30.3516C1.81641 26.875 2.01172 22.7799 2.01172 18.0664V7.38281C2.01172 6.4974 1.88802 5.90495 1.64062 5.60547C1.40625 5.29297 0.957031 5.03255 0.292969 4.82422C0.0976562 4.5638 0 4.14714 0 3.57422C0 2.98828 0.0195312 2.57812 0.0585938 2.34375C1.16536 2.33073 2.73438 2.31771 4.76562 2.30469C6.79688 2.29167 8.32031 2.27865 9.33594 2.26562C12.1615 2.22656 15.7096 2.1224 19.9805 1.95312C20.1888 2.13542 20.293 2.97526 20.293 4.47266C20.293 5.97005 20.0911 7.10286 19.6875 7.87109C19.2839 8.63932 18.5286 9.02344 17.4219 9.02344C16.3151 9.02344 15.5404 8.67839 15.0977 7.98828V5.625C11.2956 5.44271 8.77604 5.35156 7.53906 5.35156ZM29.2188 21.9141C29.6094 23.8411 30.4427 25.3971 31.7188 26.582C32.9948 27.7669 34.4857 28.3594 36.1914 28.3594C37.8971 28.3594 39.6159 27.6237 41.3477 26.1523C41.9987 26.582 42.3958 27.0898 42.5391 27.6758C41.3411 29.069 39.5703 30.0651 37.2266 30.6641C36.276 30.9115 35.1758 31.0352 33.9258 31.0352C32.6888 31.0352 31.4062 30.8073 30.0781 30.3516C28.75 29.9089 27.5586 29.2578 26.5039 28.3984C25.4622 27.5391 24.6354 26.4128 24.0234 25.0195C23.4115 23.6133 23.1055 22.0573 23.1055 20.3516C23.1055 18.6458 23.418 17.1029 24.043 15.7227C24.668 14.3294 25.4948 13.1901 26.5234 12.3047C28.6719 10.4427 31.1328 9.51172 33.9062 9.51172C36.3411 9.51172 38.4505 10.1693 40.2344 11.4844C41.0938 12.1354 41.7773 12.9818 42.2852 14.0234C42.806 15.0521 43.0664 16.2174 43.0664 17.5195C43.0664 19.7461 42.3307 20.918 40.8594 21.0352L29.2188 21.9141ZM37.8125 16.9336C37.8125 15.3841 37.3828 14.1732 36.5234 13.3008C35.6641 12.4284 34.5378 11.9922 33.1445 11.9922C31.7513 11.9922 30.6966 12.6497 29.9805 13.9648C29.2643 15.2669 28.9062 17.0768 28.9062 19.3945C32.1484 19.043 35.0781 18.6719 37.6953 18.2812C37.7734 17.8125 37.8125 17.3633 37.8125 16.9336ZM52.5781 21.9141C52.9688 23.8411 53.8021 25.3971 55.0781 26.582C56.3542 27.7669 57.8451 28.3594 59.5508 28.3594C61.2565 28.3594 62.9753 27.6237 64.707 26.1523C65.3581 26.582 65.7552 27.0898 65.8984 27.6758C64.7005 29.069 62.9297 30.0651 60.5859 30.6641C59.6354 30.9115 58.5352 31.0352 57.2852 31.0352C56.0482 31.0352 54.7656 30.8073 53.4375 30.3516C52.1094 29.9089 50.918 29.2578 49.8633 28.3984C48.8216 27.5391 47.9948 26.4128 47.3828 25.0195C46.7708 23.6133 46.4648 22.0573 46.4648 20.3516C46.4648 18.6458 46.7773 17.1029 47.4023 15.7227C48.0273 14.3294 48.8542 13.1901 49.8828 12.3047C52.0312 10.4427 54.4922 9.51172 57.2656 9.51172C59.7005 9.51172 61.8099 10.1693 63.5938 11.4844C64.4531 12.1354 65.1367 12.9818 65.6445 14.0234C66.1654 15.0521 66.4258 16.2174 66.4258 17.5195C66.4258 19.7461 65.6901 20.918 64.2188 21.0352L52.5781 21.9141ZM61.1719 16.9336C61.1719 15.3841 60.7422 14.1732 59.8828 13.3008C59.0234 12.4284 57.8971 11.9922 56.5039 11.9922C55.1107 11.9922 54.056 12.6497 53.3398 13.9648C52.6237 15.2669 52.2656 17.0768 52.2656 19.3945C55.5078 19.043 58.4375 18.6719 61.0547 18.2812C61.1328 17.8125 61.1719 17.3633 61.1719 16.9336ZM90.2734 4.04297L90.0977 16.0742C90.0977 18.8477 90.1367 22.2201 90.2148 26.1914C90.2148 27.0638 90.5729 27.5326 91.2891 27.5977C91.4453 27.6107 91.6862 27.6172 92.0117 27.6172C92.3372 27.6172 92.5911 27.6237 92.7734 27.6367C92.9167 27.8841 92.9883 28.1445 92.9883 28.418C92.9883 28.6914 92.9688 28.9258 92.9297 29.1211C90.6641 30.3971 88.7565 31.0352 87.207 31.0352C86.1263 30.8659 85.2604 30.026 84.6094 28.5156C83.6849 29.401 82.7734 30.0391 81.875 30.4297C80.9766 30.8333 80 31.0352 78.9453 31.0352C77.8906 31.0352 76.9271 30.9245 76.0547 30.7031C75.1953 30.4948 74.3424 30.1302 73.4961 29.6094C72.6497 29.0885 71.9141 28.4375 71.2891 27.6562C69.8828 25.8984 69.1797 23.5286 69.1797 20.5469C69.1797 18.8151 69.5052 17.2526 70.1562 15.8594C70.8073 14.4661 71.6797 13.3333 72.7734 12.4609C75.013 10.6771 77.7018 9.78516 80.8398 9.78516C81.7383 9.78516 82.9818 9.90885 84.5703 10.1562L84.4531 5C84.4141 4.34896 84.1667 3.83464 83.7109 3.45703C83.2682 3.07943 82.7018 2.85807 82.0117 2.79297C81.9206 2.15495 81.875 1.79688 81.875 1.71875C81.875 1.6276 81.8815 1.52995 81.8945 1.42578C84.3555 0.47526 86.8099 0 89.2578 0C89.375 0 89.4922 0 89.6094 0C89.7917 0.247396 89.9479 0.761719 90.0781 1.54297C90.2083 2.32422 90.2734 3.15755 90.2734 4.04297ZM81.8164 12.6367C79.8893 12.6367 78.3073 13.2487 77.0703 14.4727C75.8464 15.6966 75.2344 17.5521 75.2344 20.0391C75.2344 21.7448 75.4297 23.138 75.8203 24.2188C76.224 25.2865 76.6667 26.0677 77.1484 26.5625C78.099 27.5391 79.0951 28.0273 80.1367 28.0273C81.1784 28.0273 81.9727 27.8711 82.5195 27.5586C83.0664 27.2461 83.75 26.6276 84.5703 25.7031C84.6615 23.9844 84.707 21.8945 84.707 19.4336C84.707 16.9596 84.6875 14.7721 84.6484 12.8711C83.6849 12.7148 82.7409 12.6367 81.8164 12.6367Z" fill="#7B9E6B"/>
<path d="M121.23 6.67969C121.087 7.57812 120.827 8.22266 120.449 8.61328C120.085 9.00391 119.44 9.19922 118.516 9.19922C117.591 9.19922 116.829 8.86068 116.23 8.18359V5.42969C114.707 5.54688 112.969 5.625 111.016 5.66406V22.5195C111.016 25.5143 111.178 28.125 111.504 30.3516C110.488 30.6901 109.206 30.8594 107.656 30.8594C106.12 30.8594 105.072 30.6901 104.512 30.3516L105.02 24.0625V5.66406L99.4727 5.46875V8.18359C99.3034 8.43099 98.9909 8.66536 98.5352 8.88672C98.0794 9.09505 97.5065 9.19922 96.8164 9.19922C96.1263 9.19922 95.5924 9.00391 95.2148 8.61328C94.8503 8.22266 94.5898 7.58464 94.4336 6.69922C94.2904 5.8138 94.2188 4.89583 94.2188 3.94531C94.2188 2.98177 94.3424 2.36979 94.5898 2.10938C97.8841 2.26562 102.064 2.34375 107.129 2.34375C112.194 2.34375 116.849 2.26562 121.094 2.10938C121.341 2.36979 121.465 2.96875 121.465 3.90625C121.465 4.84375 121.387 5.76823 121.23 6.67969ZM130 21.9141C130.391 23.8411 131.224 25.3971 132.5 26.582C133.776 27.7669 135.267 28.3594 136.973 28.3594C138.678 28.3594 140.397 27.6237 142.129 26.1523C142.78 26.582 143.177 27.0898 143.32 27.6758C142.122 29.069 140.352 30.0651 138.008 30.6641C137.057 30.9115 135.957 31.0352 134.707 31.0352C133.47 31.0352 132.188 30.8073 130.859 30.3516C129.531 29.9089 128.34 29.2578 127.285 28.3984C126.243 27.5391 125.417 26.4128 124.805 25.0195C124.193 23.6133 123.887 22.0573 123.887 20.3516C123.887 18.6458 124.199 17.1029 124.824 15.7227C125.449 14.3294 126.276 13.1901 127.305 12.3047C129.453 10.4427 131.914 9.51172 134.688 9.51172C137.122 9.51172 139.232 10.1693 141.016 11.4844C141.875 12.1354 142.559 12.9818 143.066 14.0234C143.587 15.0521 143.848 16.2174 143.848 17.5195C143.848 19.7461 143.112 20.918 141.641 21.0352L130 21.9141ZM138.594 16.9336C138.594 15.3841 138.164 14.1732 137.305 13.3008C136.445 12.4284 135.319 11.9922 133.926 11.9922C132.533 11.9922 131.478 12.6497 130.762 13.9648C130.046 15.2669 129.688 17.0768 129.688 19.3945C132.93 19.043 135.859 18.6719 138.477 18.2812C138.555 17.8125 138.594 17.3633 138.594 16.9336ZM166.797 14.3945C166.797 16.3737 165.768 17.3633 163.711 17.3633C163.008 17.3633 162.5 17.2852 162.188 17.1289C161.875 16.9596 161.719 16.862 161.719 16.8359C161.758 16.5885 161.777 16.3346 161.777 16.0742C161.777 14.8503 161.38 13.8802 160.586 13.1641C159.805 12.4349 158.75 12.0703 157.422 12.0703C156.094 12.0703 155.026 12.6432 154.219 13.7891C153.411 14.9219 153.008 16.6862 153.008 19.082C153.008 21.4779 153.698 23.5938 155.078 25.4297C156.471 27.2656 158.021 28.1836 159.727 28.1836C161.198 28.1836 162.669 27.5911 164.141 26.4062C164.479 26.1328 164.818 25.8073 165.156 25.4297C165.443 25.612 165.736 25.8724 166.035 26.2109C166.348 26.5365 166.536 26.849 166.602 27.1484C165.99 27.9688 165.065 28.7565 163.828 29.5117C162.135 30.5273 160.267 31.0352 158.223 31.0352C156.178 31.0352 154.316 30.6055 152.637 29.7461C150.97 28.8867 149.655 27.6562 148.691 26.0547C147.728 24.4531 147.246 22.6302 147.246 20.5859C147.246 16.6536 148.698 13.6198 151.602 11.4844C153.464 10.1172 155.729 9.43359 158.398 9.43359C160.651 9.43359 162.611 9.92188 164.277 10.8984C165.033 11.3411 165.638 11.8685 166.094 12.4805C166.549 13.0924 166.784 13.7305 166.797 14.3945ZM185.879 26.1133L186.074 18.6719C186.074 18.5547 186.074 18.3724 186.074 18.125C186.074 17.8646 186.074 17.6172 186.074 17.3828C186.074 17.1484 186.068 16.9206 186.055 16.6992C186.055 16.4779 186.042 16.2695 186.016 16.0742C185.99 15.8659 185.957 15.6706 185.918 15.4883C185.892 15.306 185.846 15.1432 185.781 15C185.729 14.8438 185.658 14.707 185.566 14.5898C185.488 14.4596 185.391 14.349 185.273 14.2578C185.156 14.1536 185.02 14.0625 184.863 13.9844C184.564 13.8542 184.069 13.7891 183.379 13.7891C181.79 13.7891 179.974 14.7786 177.93 16.7578C177.93 19.1797 177.891 23.7109 177.812 30.3516C176.354 30.599 175.156 30.7227 174.219 30.7227C173.281 30.7227 172.48 30.599 171.816 30.3516C172.064 28.5026 172.188 24.7526 172.188 19.1016C172.188 13.4505 172.129 8.89323 172.012 5.42969C171.934 4.1276 171.12 3.39193 169.57 3.22266C169.557 3.14453 169.538 3.02734 169.512 2.87109C169.46 2.58464 169.434 2.38281 169.434 2.26562C169.434 2.10938 169.44 1.97917 169.453 1.875C171.172 1.21094 172.617 0.807292 173.789 0.664062C174.961 0.507812 175.801 0.429688 176.309 0.429688C176.816 0.429688 177.129 0.429688 177.246 0.429688C177.559 0.820312 177.754 1.73177 177.832 3.16406C177.91 4.59635 177.949 6.47135 177.949 8.78906C177.949 11.0938 177.943 12.7734 177.93 13.8281C179.102 12.4089 180.456 11.3346 181.992 10.6055C183.529 9.8763 185.065 9.51172 186.602 9.51172C188.138 9.51172 189.336 10.0195 190.195 11.0352C191.068 12.0508 191.569 13.4375 191.699 15.1953C191.751 15.9766 191.777 16.7773 191.777 17.5977C191.777 18.418 191.699 19.7591 191.543 21.6211C191.4 23.4831 191.328 25.1497 191.328 26.6211C191.328 26.9596 191.569 27.2201 192.051 27.4023C192.533 27.5846 193.001 27.6758 193.457 27.6758C193.926 27.6758 194.245 27.6497 194.414 27.5977C194.57 27.9492 194.648 28.2747 194.648 28.5742C194.648 28.8607 194.635 29.056 194.609 29.1602C192.174 30.4232 190.358 31.0547 189.16 31.0547C187.962 31.0547 187.116 30.651 186.621 29.8438C186.126 29.0234 185.879 27.7799 185.879 26.1133Z" fill="#333333"/>
</svg>
